<?xml version="1.0" standalone="no"?>
<!DOCTYPE svg PUBLIC "-//W3C//DTD SVG 20010904//EN"
 "http://www.w3.org/TR/2001/REC-SVG-20010904/DTD/svg10.dtd">
<svg version="1.0" xmlns="http://www.w3.org/2000/svg"
 width="1063.000000pt" height="1063.000000pt" viewBox="0 0 1063.000000 1063.000000"
 preserveAspectRatio="xMidYMid meet">
<metadata>
Created by potrace 1.14, written by Peter Selinger 2001-2017
</metadata>
<g transform="translate(0.000000,1063.000000) scale(0.100000,-0.100000)"
fill="#000000" stroke="none">
<path d="M4905 10325 c-871 -80 -1651 -349 -2350 -810 -297 -196 -514 -372
-768 -623 -964 -952 -1497 -2225 -1497 -3572 0 -994 283 -1940 825 -2765 418
-634 968 -1162 1625 -1557 296 -178 609 -323 964 -444 769 -263 1631 -331
2451 -193 344 58 608 129 940 254 553 209 1061 512 1510 900 154 134 437 420
554 560 508 612 853 1290 1036 2038 99 409 145 784 145 1202 0 1099 -356 2158
-1018 3035 -267 353 -625 710 -977 975 -277 208 -512 351 -839 511 -500 243
-978 386 -1551 464 -298 40 -762 51 -1050 25z m816 -280 c317 -32 516 -66 804
-140 1060 -272 2031 -947 2667 -1851 468 -666 745 -1398 845 -2229 14 -118 18
-227 18 -510 0 -384 -8 -487 -60 -796 -200 -1185 -851 -2258 -1810 -2984 -642
-487 -1388 -801 -2172 -915 -461 -67 -935 -67 -1396 0 -1366 199 -2594 1003
-3328 2180 -381 611 -606 1258 -696 2005 -25 211 -25 803 0 1020 112 960 478
1814 1092 2550 119 142 378 405 525 531 409 352 895 645 1390 836 413 159 810
252 1295 302 185 19 636 20 826 1z"/>
<path d="M5010 9319 c-136 -10 -364 -42 -505 -70 -521 -108 -1061 -342 -1506
-653 -312 -219 -641 -538 -879 -851 -438 -577 -705 -1241 -797 -1987 -25 -201
-25 -685 0 -886 117 -946 516 -1765 1178 -2419 320 -315 640 -542 1049 -743
411 -201 828 -324 1315 -387 197 -25 700 -25 900 0 805 102 1522 409 2125 911
117 97 344 321 449 441 472 541 794 1208 924 1915 50 268 61 403 61 725 0 322
-11 457 -61 725 -205 1115 -859 2073 -1832 2688 -130 82 -486 261 -631 317
-129 51 -369 130 -482 159 -407 105 -871 146 -1308 115z m-1325 -1474 c331
-96 559 -167 590 -184 57 -32 109 -94 125 -149 6 -20 53 -728 105 -1572 53
-844 97 -1540 99 -1546 2 -6 49 -23 104 -38 115 -32 154 -53 182 -98 25 -41
25 -89 1 -167 -37 -120 -99 -164 -199 -142 -26 6 -277 77 -559 159 -557 162
-573 169 -593 241 -19 72 30 229 84 264 52 34 82 31 309 -34 120 -34 219 -60
222 -58 5 6 -31 718 -37 724 -13 13 -1352 395 -1359 388 -17 -17 -418 -587
-415 -590 2 -2 79 -26 172 -53 202 -60 237 -74 271 -114 23 -28 25 -36 21
-103 -9 -142 -80 -229 -178 -220 -55 5 -1011 282 -1061 308 -20 10 -44 30 -55
46 -39 59 -7 219 57 282 45 45 93 48 219 12 81 -23 108 -27 116 -18 20 21
1645 2258 1650 2271 3 7 -3 16 -13 18 -202 56 -526 155 -553 168 -19 10 -44
27 -54 39 -27 30 -32 106 -11 177 34 118 80 159 170 150 28 -3 293 -75 590
-161z m2793 -811 c180 -52 341 -104 360 -116 18 -11 39 -33 48 -49 11 -22 30
-252 79 -980 35 -524 66 -953 67 -955 2 -1 246 331 543 739 297 408 553 756
569 775 42 48 81 65 132 58 43 -6 604 -164 681 -192 23 -8 56 -32 74 -51 30
-35 31 -39 27 -109 -4 -51 -13 -89 -32 -127 -48 -99 -101 -114 -250 -72 -53
15 -98 26 -100 24 -10 -13 -666 -2571 -661 -2579 3 -6 11 -10 17 -10 5 0 49
-12 97 -26 68 -21 94 -35 125 -65 l39 -39 -5 -75 c-9 -145 -80 -232 -178 -221
-25 3 -260 68 -523 144 -442 128 -481 142 -512 172 -20 20 -37 48 -41 68 -15
76 44 230 98 258 46 24 106 16 283 -36 93 -27 171 -48 173 -46 5 5 601 2290
598 2293 -2 2 -230 -311 -507 -694 -277 -384 -521 -718 -541 -744 -46 -58
-123 -99 -189 -99 -118 0 -242 68 -280 155 -24 54 -23 43 -84 1008 -29 467
-54 850 -56 852 -5 4 -710 -2215 -712 -2241 -2 -16 22 -26 159 -65 186 -54
238 -78 259 -119 33 -63 9 -202 -46 -265 -35 -40 -87 -60 -133 -51 -19 4 -248
69 -511 145 -459 133 -478 140 -513 175 -36 35 -37 39 -36 105 0 57 6 81 33
135 37 76 66 96 137 96 27 0 86 -12 132 -26 46 -14 87 -23 90 -20 12 13 811
2531 804 2537 -4 4 -36 15 -71 24 -84 22 -132 47 -166 87 -26 30 -27 37 -22
98 6 68 26 126 59 173 50 70 97 65 486 -49z"/>
<path d="M3937 7302 c-157 -216 -928 -1314 -925 -1317 9 -9 1081 -315 1086
-311 6 7 -66 1553 -76 1615 -5 32 -13 46 -29 52 -19 7 -27 1 -56 -39z"/>
</g>
</svg>
