<?xml version="1.0" standalone="no"?>
<!DOCTYPE svg PUBLIC "-//W3C//DTD SVG 20010904//EN"
 "http://www.w3.org/TR/2001/REC-SVG-20010904/DTD/svg10.dtd">
<svg version="1.0" xmlns="http://www.w3.org/2000/svg"
 width="875.000000pt" height="875.000000pt" viewBox="0 0 875.000000 875.000000"
 preserveAspectRatio="xMidYMid meet">
<metadata>
Created by potrace 1.14, written by Peter Selinger 2001-2017
</metadata>
<g transform="translate(0.000000,875.000000) scale(0.100000,-0.100000)"
fill="#000000" stroke="none">
<path d="M4135 5675 c-413 -46 -850 -271 -1140 -588 -518 -566 -643 -1388
-315 -2075 185 -387 468 -676 857 -875 515 -263 1161 -263 1676 0 584 298 957
838 1028 1484 14 127 6 391 -15 507 -112 612 -485 1108 -1031 1372 -336 163
-673 219 -1060 175z m395 -105 c419 -37 793 -212 1089 -509 277 -277 440 -599
502 -991 18 -109 18 -400 1 -510 -18 -115 -66 -293 -103 -388 -47 -119 -133
-277 -207 -382 -85 -121 -290 -325 -412 -412 -631 -446 -1469 -436 -2085 26
-113 84 -298 274 -377 386 -123 174 -223 389 -271 585 -40 162 -52 260 -52
440 0 180 12 278 52 440 158 637 698 1153 1347 1286 176 36 335 45 516 29z"/>
<path d="M4235 5504 c-16 -2 -66 -9 -110 -15 -356 -47 -719 -236 -975 -506
-639 -675 -623 -1727 36 -2375 550 -540 1397 -644 2051 -251 704 423 1005
1255 732 2028 -202 575 -710 998 -1319 1101 -84 15 -357 26 -415 18z m296
-114 c371 -38 703 -195 964 -455 595 -596 621 -1549 59 -2179 -474 -532 -1259
-679 -1894 -355 -185 94 -332 207 -464 355 -563 631 -537 1583 59 2179 338
337 802 502 1276 455z"/>
<path d="M4195 5304 c-88 -13 -200 -39 -285 -66 -538 -171 -933 -642 -1019
-1215 -14 -92 -14 -324 0 -416 49 -328 199 -629 426 -854 208 -206 463 -343
752 -405 90 -20 136 -23 306 -23 170 0 216 3 306 23 160 34 333 101 462 179
342 205 589 540 686 928 31 127 41 214 41 360 0 146 -10 233 -41 360 -96 383
-326 698 -674 920 -124 78 -307 150 -485 190 -73 16 -404 29 -475 19z m-417
-555 c114 -33 213 -65 220 -71 7 -6 18 -21 24 -32 6 -11 27 -274 47 -600 l36
-579 49 -17 c65 -21 75 -38 56 -92 -12 -35 -20 -44 -42 -46 -24 -3 -336 81
-411 110 -38 15 -48 37 -36 82 15 56 39 61 137 33 45 -13 84 -21 86 -18 7 14
-10 261 -19 270 -6 5 -113 39 -240 75 -126 37 -237 69 -246 72 -12 3 -37 -24
-89 -98 -40 -57 -77 -108 -82 -115 -7 -8 11 -18 64 -33 40 -12 82 -30 92 -40
17 -17 18 -23 7 -59 -20 -68 -27 -69 -248 -4 -111 32 -205 65 -215 75 -20 20
-17 55 9 97 13 20 20 22 51 16 21 -4 47 -8 59 -9 17 -1 78 77 323 413 166 228
304 420 307 427 3 8 -25 21 -84 39 -158 47 -169 57 -139 129 21 50 36 48 284
-25z m1020 -295 c70 -20 135 -44 145 -53 15 -15 21 -64 42 -371 13 -194 26
-355 29 -357 2 -2 66 80 141 184 76 103 172 234 213 291 87 118 83 117 221 76
187 -55 198 -64 167 -139 l-16 -38 -60 7 c-33 4 -60 4 -60 1 0 -3 -54 -213
-120 -467 -66 -254 -121 -468 -122 -477 -2 -10 10 -19 33 -25 48 -14 69 -33
69 -62 0 -36 -21 -74 -45 -80 -19 -5 -334 80 -392 106 -40 17 -23 115 21 125
12 3 52 -3 89 -14 54 -16 69 -17 73 -7 14 38 221 842 217 846 -2 2 -7 0 -11
-6 -59 -92 -392 -540 -409 -551 -51 -34 -138 8 -148 71 -2 17 -11 150 -20 296
-16 283 -24 374 -31 367 -7 -6 -264 -818 -264 -832 0 -7 28 -20 63 -30 71 -20
97 -38 97 -71 0 -34 -20 -73 -41 -79 -18 -6 -363 86 -403 107 -15 8 -17 18
-13 54 8 74 33 86 122 59 19 -6 31 29 169 462 82 257 149 472 150 476 1 5 -19
16 -44 26 -47 17 -58 38 -46 86 7 26 32 55 47 55 6 0 67 -16 137 -36z"/>
<path d="M3688 4318 c-98 -139 -176 -253 -174 -255 9 -9 407 -120 410 -114 1
3 -3 116 -10 251 -7 135 -13 273 -13 308 -1 52 -4 62 -18 62 -12 0 -80 -88
-195 -252z"/>
</g>
</svg>
